<mxfile host="app.diagrams.net" modified="2023-10-06T12:16:27.719Z" agent="Mozilla/5.0 (Windows NT 10.0; Win64; x64) AppleWebKit/537.36 (KHTML, like Gecko) Chrome/117.0.0.0 Safari/537.36 Edg/117.0.2045.47" etag="-QI0UL37Up_uDlKZM3d8" version="22.0.3" type="device">
  <diagram name="Page-1" id="VdnpNjUx3n8zWGhXV_Yf">
    <mxGraphModel dx="866" dy="763" grid="1" gridSize="10" guides="1" tooltips="1" connect="1" arrows="1" fold="1" page="1" pageScale="1" pageWidth="850" pageHeight="1100" math="0" shadow="0">
      <root>
        <mxCell id="0" />
        <mxCell id="1" parent="0" />
        <mxCell id="v2TofEehhNOOejPJFUjZ-8" style="edgeStyle=orthogonalEdgeStyle;rounded=0;orthogonalLoop=1;jettySize=auto;html=1;exitX=0.5;exitY=1;exitDx=0;exitDy=0;entryX=0.5;entryY=0;entryDx=0;entryDy=0;" edge="1" parent="1" source="v2TofEehhNOOejPJFUjZ-1" target="v2TofEehhNOOejPJFUjZ-2">
          <mxGeometry relative="1" as="geometry" />
        </mxCell>
        <mxCell id="v2TofEehhNOOejPJFUjZ-9" style="edgeStyle=orthogonalEdgeStyle;rounded=0;orthogonalLoop=1;jettySize=auto;html=1;exitX=0.5;exitY=1;exitDx=0;exitDy=0;entryX=0.5;entryY=0;entryDx=0;entryDy=0;" edge="1" parent="1" source="v2TofEehhNOOejPJFUjZ-1" target="v2TofEehhNOOejPJFUjZ-3">
          <mxGeometry relative="1" as="geometry" />
        </mxCell>
        <mxCell id="v2TofEehhNOOejPJFUjZ-1" value="main" style="rounded=0;whiteSpace=wrap;html=1;" vertex="1" parent="1">
          <mxGeometry x="365" y="120" width="120" height="60" as="geometry" />
        </mxCell>
        <mxCell id="v2TofEehhNOOejPJFUjZ-2" value="title" style="rounded=0;whiteSpace=wrap;html=1;" vertex="1" parent="1">
          <mxGeometry x="245" y="240" width="120" height="60" as="geometry" />
        </mxCell>
        <mxCell id="v2TofEehhNOOejPJFUjZ-10" style="edgeStyle=orthogonalEdgeStyle;rounded=0;orthogonalLoop=1;jettySize=auto;html=1;exitX=0.25;exitY=1;exitDx=0;exitDy=0;entryX=0.5;entryY=0;entryDx=0;entryDy=0;" edge="1" parent="1" source="v2TofEehhNOOejPJFUjZ-3" target="v2TofEehhNOOejPJFUjZ-4">
          <mxGeometry relative="1" as="geometry" />
        </mxCell>
        <mxCell id="v2TofEehhNOOejPJFUjZ-12" style="edgeStyle=orthogonalEdgeStyle;rounded=0;orthogonalLoop=1;jettySize=auto;html=1;exitX=0.75;exitY=1;exitDx=0;exitDy=0;entryX=0.5;entryY=0;entryDx=0;entryDy=0;" edge="1" parent="1" source="v2TofEehhNOOejPJFUjZ-3" target="v2TofEehhNOOejPJFUjZ-6">
          <mxGeometry relative="1" as="geometry" />
        </mxCell>
        <mxCell id="v2TofEehhNOOejPJFUjZ-3" value="game" style="rounded=0;whiteSpace=wrap;html=1;" vertex="1" parent="1">
          <mxGeometry x="485" y="240" width="120" height="60" as="geometry" />
        </mxCell>
        <mxCell id="v2TofEehhNOOejPJFUjZ-4" value="randint" style="rounded=0;whiteSpace=wrap;html=1;" vertex="1" parent="1">
          <mxGeometry x="365" y="360" width="120" height="60" as="geometry" />
        </mxCell>
        <mxCell id="v2TofEehhNOOejPJFUjZ-5" value="random number" style="rounded=0;whiteSpace=wrap;html=1;" vertex="1" parent="1">
          <mxGeometry x="510" y="360" width="120" height="60" as="geometry" />
        </mxCell>
        <mxCell id="v2TofEehhNOOejPJFUjZ-6" value="get_guess" style="rounded=0;whiteSpace=wrap;html=1;" vertex="1" parent="1">
          <mxGeometry x="650" y="360" width="120" height="60" as="geometry" />
        </mxCell>
        <mxCell id="v2TofEehhNOOejPJFUjZ-11" style="edgeStyle=orthogonalEdgeStyle;rounded=0;orthogonalLoop=1;jettySize=auto;html=1;exitX=0.5;exitY=1;exitDx=0;exitDy=0;entryX=0.442;entryY=-0.033;entryDx=0;entryDy=0;entryPerimeter=0;" edge="1" parent="1" source="v2TofEehhNOOejPJFUjZ-3" target="v2TofEehhNOOejPJFUjZ-5">
          <mxGeometry relative="1" as="geometry" />
        </mxCell>
      </root>
    </mxGraphModel>
  </diagram>
</mxfile>
